<?xml version="1.0" encoding="UTF-8" standalone="no"?>
<!-- Created with Inkscape (http://www.inkscape.org/) -->

<svg
   width="276.2919mm"
   height="278.88239mm"
   viewBox="0 0 276.2919 278.88239"
   version="1.1"
   id="svg5"
   inkscape:export-filename="bunny.svg"
   inkscape:export-xdpi="11.03"
   inkscape:export-ydpi="11.03"
   xmlns:inkscape="http://www.inkscape.org/namespaces/inkscape"
   xmlns:sodipodi="http://sodipodi.sourceforge.net/DTD/sodipodi-0.dtd"
   xmlns="http://www.w3.org/2000/svg"
   xmlns:svg="http://www.w3.org/2000/svg">
  <sodipodi:namedview
     id="namedview7"
     pagecolor="#ffffff"
     bordercolor="#000000"
     borderopacity="0.25"
     inkscape:showpageshadow="2"
     inkscape:pageopacity="0.0"
     inkscape:pagecheckerboard="0"
     inkscape:deskcolor="#d1d1d1"
     inkscape:document-units="mm"
     showgrid="false" />
  <defs
     id="defs2" />
  <g
     inkscape:label="Layer 1"
     inkscape:groupmode="layer"
     id="layer1"
     transform="translate(45.111855,2.6194305)">
    <ellipse
       style="fill:#ffff00;stroke-width:0.272272"
       id="path320"
       cx="93.034096"
       cy="136.82176"
       rx="138.14595"
       ry="139.44119" />
    <path
       id="path113"
       style="fill:#00cdcd;fill-opacity:1;stroke-width:0.264583"
       d="m 57.648161,17.522445 c -2.281689,-0.02876 -4.051602,0.411579 -5.204334,0.889868 -5.269631,2.186463 -7.581449,13.039514 -7.581449,13.039514 0,0 -12.890046,-8.260635 -22.203296,-2.895947 -5.538974,3.190602 -6.221957,19.790917 6.099369,54.050964 C 41.07978,116.86689 63.2349,147.69228 63.2349,147.69228 c 0,0 -31.370416,38.1976 -28.346074,61.20298 3.02434,23.00538 45.073268,27.99377 75.717864,35.99832 30.64458,8.00456 45.39617,1.84297 58.54526,-7.99796 13.1491,-9.84094 0.69459,-32.89787 -4.28656,-55.00336 -4.98117,-22.10551 -43.9968,-55.59351 -43.9968,-55.59351 0,0 -2.91894,-30.360608 -23.956159,-70.910916 C 80.477093,23.707909 65.797048,17.625171 57.648161,17.522445 Z M 126.20832,166.45134 c 2.61239,0.0136 5.95358,0.78798 8.86974,3.83026 5.83231,6.08455 5.55832,19.16162 5.55832,19.16162 0,0 -12.42376,-1.16703 -19.87269,-6.45801 -7.44893,-5.29097 0.94878,-15.80058 0.94878,-15.80058 0,0 1.88345,-0.74694 4.49585,-0.73329 z" />
    <path
       id="path1127"
       style="fill:#00cdcd;fill-opacity:1;stroke:#000000;stroke-width:9.365;stroke-dasharray:none;stroke-opacity:1"
       d="m 57.648161,17.522445 c -2.281689,-0.02876 -4.051602,0.411579 -5.204334,0.889868 -5.269631,2.186463 -7.581449,13.039514 -7.581449,13.039514 0,0 -12.890046,-8.260635 -22.203296,-2.895947 -5.538974,3.190602 -6.221957,19.790917 6.099369,54.050964 C 41.07978,116.86689 63.2349,147.69228 63.2349,147.69228 c 0,0 -31.370416,38.1976 -28.346074,61.20298 3.02434,23.00538 45.073268,27.99377 75.717864,35.99832 30.64458,8.00456 45.39617,1.84297 58.54526,-7.99796 13.1491,-9.84094 0.69459,-32.89787 -4.28656,-55.00336 -4.98117,-22.10551 -43.9968,-55.59351 -43.9968,-55.59351 0,0 -2.91894,-30.360608 -23.956159,-70.910916 C 80.477093,23.707909 65.797048,17.625171 57.648161,17.522445 Z M 126.20832,166.45134 c 2.61239,0.0136 5.95358,0.78798 8.86974,3.83026 5.83231,6.08455 5.55832,19.16162 5.55832,19.16162 0,0 -12.42376,-1.16703 -19.87269,-6.45801 -7.44893,-5.29097 0.94878,-15.80058 0.94878,-15.80058 0,0 1.88345,-0.74694 4.49585,-0.73329 z" />
  </g>
</svg>
